<?xml version="1.0" encoding="utf-8"?>
<!-- Generator: Adobe Illustrator 26.1.0, SVG Export Plug-In . SVG Version: 6.00 Build 0)  -->
<svg version="1.1" id="Layer_1" xmlns="http://www.w3.org/2000/svg" xmlns:xlink="http://www.w3.org/1999/xlink" x="0px" y="0px"
	 viewBox="0 0 311.811 239.897" style="enable-background:new 0 0 311.811 239.897;" xml:space="preserve">
<style type="text/css">
	.st0{fill:#B61F1F;}
	.st1{fill-rule:evenodd;clip-rule:evenodd;fill:#1D1D1B;}
	.st2{fill:#FFFFFF;}
</style>
<g>
	<path class="st0" d="M155.898,0L36.503,206.811l0.491,0.282c37.697,21.771,77.708,32.804,118.908,32.804
		c41.207,0,81.217-11.033,118.908-32.804l0.498-0.282L155.898,0z"/>
	<rect y="73.023" class="st1" width="311.811" height="113.863"/>
	<g>
		<path class="st2" d="M17.459,130.01c0-22.702,18.441-41.143,41.147-41.143c11.291,0,21.547,4.61,29.04,12.1l-18.097,17.98
			c-2.766-2.766-6.681-4.611-10.943-4.611c-8.646,0-15.675,7.033-15.675,15.674c0,8.533,7.029,15.563,15.675,15.563
			c4.263,0,8.177-1.732,10.943-4.611l18.097,18.093c-7.493,7.377-17.749,11.986-29.04,11.986
			C35.9,171.041,17.459,152.718,17.459,130.01z"/>
		<path class="st2" d="M102.879,169.428V90.481h23.398v78.947H102.879z"/>
		<path class="st2" d="M137.94,169.428l35.38-81.37l35.496,81.37h-25.123l-1.496-4.033h-17.639l-1.497,4.033H137.94z
			 M168.131,155.714h10.373l-5.185-13.947L168.131,155.714z"/>
		<path class="st2" d="M212.064,130.01c0-22.702,18.44-41.143,41.142-41.143c22.707,0,41.145,18.441,41.145,41.143
			c0,22.707-18.437,41.031-41.145,41.031C230.504,171.041,212.064,152.718,212.064,130.01z M268.769,130.01
			c0-8.64-6.917-15.674-15.563-15.674c-8.646,0-15.557,7.033-15.557,15.674c0,8.533,6.911,15.563,15.557,15.563
			C261.852,145.573,268.769,138.543,268.769,130.01z"/>
	</g>
</g>
</svg>
